<?xml version="1.0" encoding="UTF-8"?>
<svg width="62px" height="43px" viewBox="0 0 62 43" version="1.1" xmlns="http://www.w3.org/2000/svg" xmlns:xlink="http://www.w3.org/1999/xlink">
    <title>Calendar Icon</title>
    <g id="MyAccount-Banner" stroke="none" stroke-width="1" fill="none" fill-rule="evenodd">
        <g id="MyAccount2---Team-Fav" transform="translate(-164.000000, -375.000000)">
            <g id="Banner-Calendar" transform="translate(142.413771, 363.000000)">
                <g id="Calendar-Icon" transform="translate(21.885095, 14.500001)">
                    <g id="Flare" transform="translate(0.753637, 0.052763)">
                        <circle id="Oval-Copy-2" fill="#003F6E" cx="7.83629136" cy="32.4122594" r="1"></circle>
                        <circle id="Oval-Copy-3" stroke="#231F20" stroke-width="0.774399966" cx="48.6470869" cy="1.98724907" r="1.54879993"></circle>
                        <path d="M3.71446815,27.8533045 C3.58936197,28.0652446 3.38467681,28.0652446 3.25961746,27.8533045 C3.25961746,27.8533045 2.6594731,26.8366622 2.26157828,26.4623185 C1.8637303,26.0878866 0.783208151,25.523242 0.783208151,25.523242 C0.558007645,25.4055269 0.558007645,25.2129343 0.783208151,25.0952633 C0.783208151,25.0952633 1.8637303,24.5305305 2.26157828,24.1561868 C2.6594731,23.7817991 3.25961746,22.7651567 3.25961746,22.7651567 C3.38467681,22.5532608 3.58936197,22.5532608 3.71446815,22.7651567 C3.71446815,22.7651567 4.31461251,23.7817991 4.7124605,24.1561868 C5.11035532,24.5305305 6.19083063,25.0952633 6.19083063,25.0952633 C6.41603113,25.2129343 6.41603113,25.4055269 6.19083063,25.523242 C6.19083063,25.523242 5.11035532,26.0878866 4.7124605,26.4623185 C4.31461251,26.8366622 3.71446815,27.8533045 3.71446815,27.8533045" id="Fill-6" fill="#231F20"></path>
                        <path d="M8.23907925,0.438449141 L8.07164643,4.58744914 L10.8042913,4.58815412 L6.52485849,10.4384485 L6.69164643,6.28844914 L3.95964643,6.28874356 L8.23907925,0.438449141 Z" id="Combined-Shape-Copy-2" stroke="#003F6E" stroke-width="1.19999993" fill="#003F6E"></path>
                        <path d="M57.0815748,10.4384485 L56.9480285,13.7574485 L59.1337445,13.7582125 L55.7101982,18.4384481 L55.8430285,15.1184485 L53.6580285,15.1186841 L57.0815748,10.4384485 Z" id="Combined-Shape-Copy-3" stroke="#003F6E" stroke-width="0.799999952"></path>
                    </g>
                    <g id="Renew" transform="translate(26.461205, 21.810011)" fill="#231F20">
                        <g id="Group" transform="translate(6.491607, 0.000000)">
                            <path d="M14.1801852,0 C17.2333517,0 19.7193395,2.42838088 19.8120635,5.45905752 L19.8147447,5.63455949 L19.8147447,11.9734389 L16.9974649,11.9734389 L16.9974649,5.63455949 C16.9974649,4.12576857 15.8114124,2.89399507 14.3207959,2.82072761 L14.1801852,2.81727975 L2.11295981,2.81727975 L0,0 L14.1801852,0 Z" id="Path" fill-rule="nonzero"></path>
                            <polygon id="Path-7" stroke="#231F20" stroke-width="1.1359999" transform="translate(18.406105, 10.916959) rotate(-180.000000) translate(-18.406105, -10.916959) " points="14.2105749 14.0863987 22.6016347 14.0863987 18.4061048 7.7475193"></polygon>
                        </g>
                        <g id="Group-Copy" transform="translate(11.742558, 9.502017) rotate(-180.000000) translate(-11.742558, -9.502017) translate(0.242558, 2.002017)">
                            <path d="M14.1801852,0 C17.2333517,0 19.7193395,2.42838088 19.8120635,5.45905752 L19.8147447,5.63455949 L19.8147447,11.9734389 L16.9974649,11.9734389 L16.9974649,5.63455949 C16.9974649,4.12576857 15.8114124,2.89399507 14.3207959,2.82072761 L14.1801852,2.81727975 L2.11295981,2.81727975 L4.00359532e-14,0 L14.1801852,0 Z" id="Path" fill-rule="nonzero"></path>
                            <polygon id="Path-7" stroke="#231F20" stroke-width="1.1359999" transform="translate(18.406105, 10.916959) rotate(-180.000000) translate(-18.406105, -10.916959) " points="14.2105749 14.0863987 22.6016347 14.0863987 18.4061048 7.7475193"></polygon>
                        </g>
                    </g>
                    <g id="Calendar" transform="translate(16.799999, 2.400000)" stroke="#003F6E" stroke-width="2.68799985">
                        <polyline id="Path" points="8.97409596 33.5512397 2.16004979e-13 33.5512397 2.16004979e-13 6.21726854 30.2798499 6.21726854 30.2798499 16.9901098"></polyline>
                        <line x1="2.15531285e-13" y1="13.3464109" x2="30.2798499" y2="13.3464109" id="Path-3"></line>
                        <line x1="8.94427967" y1="0.662975533" x2="8.94427967" y2="9.29240658" id="Path-3-Copy"></line>
                        <line x1="21.342882" y1="0.662975533" x2="21.342882" y2="9.78496428" id="Path-3-Copy-2"></line>
                    </g>
                </g>
            </g>
        </g>
    </g>
</svg>