<?xml version="1.0" encoding="UTF-8"?>
<svg width="52px" height="52px" viewBox="0 0 52 52" version="1.1" xmlns="http://www.w3.org/2000/svg" xmlns:xlink="http://www.w3.org/1999/xlink">
    <!-- Generator: Sketch 63.1 (92452) - https://sketch.com -->
    <title>dribbble-ball-mark</title>
    <desc>Created with Sketch.</desc>
    <g id="Site" stroke="none" stroke-width="1" fill="none" fill-rule="evenodd">
        <g id="dribbble-ball-mark" fill="#232323">
            <path d="M26,0 C11.64644,0 0,11.64644 0,26 C0,40.35356 11.64644,52 26,52 C40.325376,52 52,40.35356 52,26 C52,11.64644 40.325376,0 26,0 Z M43.17352,11.984804 C46.275476,15.76354 48.13666,20.585708 48.19308,25.802608 C47.45988,25.661584 40.127984,24.167052 32.73972,25.097592 C32.570512,24.731044 32.429488,24.336208 32.260332,23.941424 C31.809128,22.86986 31.301504,21.77006 30.793932,20.72668 C38.971816,17.399148 42.694132,12.605216 43.17352,11.984804 Z M26,3.8351404 C31.63992,3.8351404 36.800452,5.9501 40.72016,9.418656 C40.325376,9.982648 36.969608,14.4664 29.073772,17.427332 C25.436008,10.744032 21.40346,5.27332 20.7831,4.427332 C22.44684,4.0325376 24.195236,3.8351404 26,3.8351404 Z M16.55316,5.921916 C17.145336,6.711484 21.09328,12.210432 24.787412,18.752708 C14.40998,21.516248 5.245136,21.4599666 4.2581344,21.4599666 C5.696288,14.579188 10.349248,8.854664 16.55316,5.921916 Z M3.7787412,26.028184 C3.7787412,25.802608 3.7787412,25.577032 3.7787412,25.351404 C4.7375276,25.379588 15.50978,25.520612 26.592176,22.19308 C27.240772,23.433852 27.832948,24.702808 28.39694,25.971816 C28.114944,26.05642 27.804764,26.141024 27.522768,26.225576 C16.073772,29.91976 9.982648,40.015196 9.475076,40.861184 C5.9501,36.941424 3.7787412,31.724524 3.7787412,26.028184 Z M26,48.221264 C20.867704,48.221264 16.13014,46.472868 12.379588,43.54012 C12.774424,42.722368 17.28636,34.03686 29.80692,29.665948 C29.86334,29.637764 29.891524,29.637764 29.947944,29.609528 C33.078084,37.702808 34.347092,44.498896 34.685456,46.444684 C32.00652,47.600852 29.073772,48.221264 26,48.221264 Z M38.37964,44.414344 C38.154012,43.060732 36.96966,36.574824 34.065096,28.594384 C41.030392,27.494584 47.121464,29.299348 47.882848,29.55316 C46.924072,35.728836 43.370912,41.058576 38.37964,44.414344 Z" id="Shape"></path>
        </g>
    </g>
</svg>