<?xml version="1.0" encoding="UTF-8"?>
<svg width="172px" height="97px" viewBox="0 0 172 97" version="1.1" xmlns="http://www.w3.org/2000/svg" xmlns:xlink="http://www.w3.org/1999/xlink">
    <title>graphic@3x</title>
    <g id="Designs" stroke="none" stroke-width="1" fill="none" fill-rule="evenodd">
        <g id="1.1---Toaster-Modal---Dark-Mode" transform="translate(-118.000000, -471.000000)">
            <g id="Modal" transform="translate(9.549996, 433.749995)">
                <g id="graphic" transform="translate(111.100002, 40.150001)">
                    <g id="mobile" transform="translate(60.500001, 6.050000)">
                        <rect id="Rectangle" stroke="#92B1CD" stroke-width="6.10038054" fill="#FFFFFF" x="0.566015181" y="0.173785187" width="50.3822942" height="81.986117"></rect>
                        <line x1="37.9666519" y1="10.7645667" x2="12.4553499" y2="10.7645667" id="Path-3-Copy" stroke="#92B1CD" stroke-width="6.10038054"></line>
                        <path d="M21.9730514,73.4487417 C23.0352632,74.4239944 24.2966209,74.9116134 25.7571623,74.9116134 C27.2177036,74.9116134 28.4624645,74.4077404 29.4914823,73.3999793 C30.5205,72.3922183 31.0350012,71.1731708 31.0350012,69.7428002 C31.0350012,68.3124297 30.5205,67.0933822 29.4914823,66.0856211 C28.4624645,65.07786 27.2177036,64.5739871 25.7571623,64.5739871 C24.2966209,64.5739871 23.0518601,65.07786 22.0228423,66.0856211 C20.9938245,67.0933822 20.4793234,68.3124297 20.4793234,69.7428002 C20.4793234,71.1731708 20.9772277,72.4084722 21.9730514,73.4487417 Z" id="Path" fill="#92B1CD"></path>
                    </g>
                    <g id="flare">
                        <path d="M160.128882,82.4363061 C159.770711,83.0335529 159.184357,83.0335529 158.826186,82.4363061 C158.826186,82.4363061 157.107369,79.5714093 155.967796,78.5165093 C154.828357,77.4613609 151.733735,75.8701931 151.733735,75.8701931 C151.088759,75.5384721 151.088759,74.9957463 151.733735,74.6641495 C151.733735,74.6641495 154.828357,73.0727333 155.967796,72.0178333 C157.107369,70.9628091 158.826186,68.0979123 158.826186,68.0979123 C159.184357,67.5007897 159.770711,67.5007897 160.128882,68.0979123 C160.128882,68.0979123 161.847699,70.9628091 162.987272,72.0178333 C164.126711,73.0727333 167.221333,74.6641495 167.221333,74.6641495 C167.866309,74.9957463 167.866309,75.5384721 167.221333,75.8701931 C167.221333,75.8701931 164.126711,77.4613609 162.987272,78.5165093 C161.847699,79.5714093 160.128882,82.4363061 160.128882,82.4363061" id="Fill-1" fill="#EDAD12"></path>
                        <path d="M18.7959621,64.4484934 C18.4405468,65.0505959 17.8590548,65.0505959 17.5037726,64.4484934 C17.5037726,64.4484934 15.7988169,61.5603047 14.6684338,60.4968283 C13.5381838,59.4331015 10.4685184,57.8289974 10.4685184,57.8289974 C9.82874416,57.4945795 9.82874416,56.9474412 10.4685184,56.6131485 C10.4685184,56.6131485 13.5381838,55.008794 14.6684338,53.9453176 C15.7988169,52.8817159 17.5037726,49.9935273 17.5037726,49.9935273 C17.8590548,49.39155 18.4405468,49.39155 18.7959621,49.9935273 C18.7959621,49.9935273 20.5009178,52.8817159 21.6311678,53.9453176 C22.7615509,55.008794 25.8310832,56.6131485 25.8310832,56.6131485 C26.4708574,56.9474412 26.4708574,57.4945795 25.8310832,57.8289974 C25.8310832,57.8289974 22.7615509,59.4331015 21.6311678,60.4968283 C20.5009178,61.5603047 18.7959621,64.4484934 18.7959621,64.4484934" id="Fill-6" fill="#B8CEC4"></path>
                        <circle id="Oval-Copy" fill="#EDAD12" cx="36.8500008" cy="26.9500006" r="4.95000011"></circle>
                        <circle id="Oval-Copy-2" fill="#B8CEC4" cx="138.460234" cy="64.9000703" r="2.75000006"></circle>
                        <circle id="Oval-Copy-3" stroke="#0074D9" stroke-width="2.20000005" cx="4.4000001" cy="4.4000001" r="4.4000001"></circle>
                        <path d="M136.352296,43.9464636 C135.999231,44.5663391 135.421237,44.5663391 135.068173,43.9464636 C135.068173,43.9464636 133.373861,40.9730203 132.250534,39.8781518 C131.12734,38.7830255 128.076838,37.1315709 128.076838,37.1315709 C127.441058,36.7872815 127.441058,36.2239927 128.076838,35.8798322 C128.076838,35.8798322 131.12734,34.2281198 132.250534,33.1332513 C133.373861,32.0382539 135.068173,29.0648106 135.068173,29.0648106 C135.421237,28.445064 135.999231,28.445064 136.352296,29.0648106 C136.352296,29.0648106 138.046608,32.0382539 139.169934,33.1332513 C140.293128,34.2281198 143.34363,35.8798322 143.34363,35.8798322 C143.979411,36.2239927 143.979411,36.7872815 143.34363,37.1315709 C143.34363,37.1315709 140.293128,38.7830255 139.169934,39.8781518 C138.046608,40.9730203 136.352296,43.9464636 136.352296,43.9464636" id="Blue-Star-Copy-2" stroke="#DF5A42" stroke-width="2.20000005"></path>
                    </g>
                </g>
            </g>
        </g>
    </g>
</svg>