<?xml version="1.0" encoding="UTF-8"?>
<svg width="510px" height="746px" viewBox="0 0 510 746" version="1.1" xmlns="http://www.w3.org/2000/svg" xmlns:xlink="http://www.w3.org/1999/xlink">
    <!-- Generator: Sketch 63.1 (92452) - https://sketch.com -->
    <title>Design Copy 6@2x</title>
    <desc>Created with Sketch.</desc>
    <g id="Site" stroke="none" stroke-width="1" fill="none" fill-rule="evenodd">
        <g id="Logo-Yellow-Copy-2" transform="translate(-545.000000, -227.000000)" fill="#0A0A0A" fill-rule="nonzero">
            <g id="Design-Copy-6" transform="translate(545.200000, 227.600000)">
                <polygon id="Path" points="1.4 322.927068 1.4 0.0761517069 393.253675 234.33467 393.253675 305.459319 62.9995424 107.142186 62.9995424 288.229167 508.9 554.53365 508.9 593.804006 254.8 744.8 1.4 592.006258 0.6209 369.977967 62.2209 407.777967 62.2209 557.06848 254.8 672.438244 418.773088 573.3"></polygon>
                <polygon id="Path" transform="translate(382.200851, 249.001610) scale(-1, 1) translate(-382.200851, -249.001610) " points="254.8 497.927068 254.8 0.0761517069 509.601701 151.209833 449.326766 186.973977 316.399542 107.142186 316.399542 461.829167"></polygon>
                <polygon id="Path" transform="translate(218.674189, 532.343267) scale(-1, 1) translate(-218.674189, -532.343267) " points="320.534634 452.696251 320.534634 526.994002 175.973434 611.990282 116.813745 573.856846"></polygon>
            </g>
        </g>
    </g>
</svg>